<mxfile host="Electron" modified="2023-12-11T12:56:49.438Z" agent="Mozilla/5.0 (Windows NT 10.0; Win64; x64) AppleWebKit/537.36 (KHTML, like Gecko) draw.io/22.1.2 Chrome/114.0.5735.289 Electron/25.9.4 Safari/537.36" etag="Y_pVUu5GT17mR-bTGzzr" version="22.1.2" type="device">
  <diagram id="QP_dzZ97FcEZqhKocgeA" name="1 oldal">
    <mxGraphModel dx="1036" dy="614" grid="1" gridSize="10" guides="1" tooltips="1" connect="1" arrows="1" fold="1" page="1" pageScale="1" pageWidth="827" pageHeight="1169" math="0" shadow="0">
      <root>
        <mxCell id="0" />
        <mxCell id="1" parent="0" />
        <mxCell id="dD7fOAj7Q7oTTu8-BAWZ-17" style="edgeStyle=orthogonalEdgeStyle;rounded=0;orthogonalLoop=1;jettySize=auto;html=1;exitX=0.5;exitY=0;exitDx=0;exitDy=0;entryX=0.5;entryY=1;entryDx=0;entryDy=0;" edge="1" parent="1" source="yW-EOCNBfwV0iZumdluQ-1" target="dD7fOAj7Q7oTTu8-BAWZ-13">
          <mxGeometry relative="1" as="geometry" />
        </mxCell>
        <mxCell id="yW-EOCNBfwV0iZumdluQ-1" value="STM32 F401C8 mikrovezérlő" style="rounded=0;whiteSpace=wrap;html=1;" parent="1" vertex="1">
          <mxGeometry x="230" y="410" width="120" height="60" as="geometry" />
        </mxCell>
        <mxCell id="dD7fOAj7Q7oTTu8-BAWZ-25" style="edgeStyle=orthogonalEdgeStyle;rounded=0;orthogonalLoop=1;jettySize=auto;html=1;exitX=0;exitY=0.5;exitDx=0;exitDy=0;entryX=1;entryY=0.5;entryDx=0;entryDy=0;" edge="1" parent="1" source="dD7fOAj7Q7oTTu8-BAWZ-1" target="yW-EOCNBfwV0iZumdluQ-1">
          <mxGeometry relative="1" as="geometry">
            <mxPoint x="410" y="490" as="targetPoint" />
          </mxGeometry>
        </mxCell>
        <mxCell id="dD7fOAj7Q7oTTu8-BAWZ-1" value="GMR sensor" style="rounded=0;whiteSpace=wrap;html=1;" vertex="1" parent="1">
          <mxGeometry x="470" y="150" width="120" height="60" as="geometry" />
        </mxCell>
        <mxCell id="dD7fOAj7Q7oTTu8-BAWZ-2" value="" style="shape=cylinder3;whiteSpace=wrap;html=1;boundedLbl=1;backgroundOutline=1;size=15;rotation=-90;" vertex="1" parent="1">
          <mxGeometry x="620" y="140" width="60" height="80" as="geometry" />
        </mxCell>
        <mxCell id="dD7fOAj7Q7oTTu8-BAWZ-24" style="edgeStyle=orthogonalEdgeStyle;rounded=0;orthogonalLoop=1;jettySize=auto;html=1;exitX=0;exitY=0.5;exitDx=0;exitDy=0;entryX=1;entryY=0.5;entryDx=0;entryDy=0;" edge="1" parent="1" source="dD7fOAj7Q7oTTu8-BAWZ-3" target="yW-EOCNBfwV0iZumdluQ-1">
          <mxGeometry relative="1" as="geometry" />
        </mxCell>
        <mxCell id="dD7fOAj7Q7oTTu8-BAWZ-3" value="GMR sensor" style="rounded=0;whiteSpace=wrap;html=1;" vertex="1" parent="1">
          <mxGeometry x="470" y="270" width="120" height="60" as="geometry" />
        </mxCell>
        <mxCell id="dD7fOAj7Q7oTTu8-BAWZ-4" value="" style="shape=cylinder3;whiteSpace=wrap;html=1;boundedLbl=1;backgroundOutline=1;size=15;rotation=-90;" vertex="1" parent="1">
          <mxGeometry x="620" y="260" width="60" height="80" as="geometry" />
        </mxCell>
        <mxCell id="dD7fOAj7Q7oTTu8-BAWZ-26" style="edgeStyle=orthogonalEdgeStyle;rounded=0;orthogonalLoop=1;jettySize=auto;html=1;exitX=0;exitY=0.5;exitDx=0;exitDy=0;entryX=1;entryY=0.5;entryDx=0;entryDy=0;" edge="1" parent="1" source="dD7fOAj7Q7oTTu8-BAWZ-5" target="yW-EOCNBfwV0iZumdluQ-1">
          <mxGeometry relative="1" as="geometry" />
        </mxCell>
        <mxCell id="dD7fOAj7Q7oTTu8-BAWZ-5" value="GMR sensor" style="rounded=0;whiteSpace=wrap;html=1;" vertex="1" parent="1">
          <mxGeometry x="470" y="410" width="120" height="60" as="geometry" />
        </mxCell>
        <mxCell id="dD7fOAj7Q7oTTu8-BAWZ-6" value="" style="shape=cylinder3;whiteSpace=wrap;html=1;boundedLbl=1;backgroundOutline=1;size=15;rotation=-90;" vertex="1" parent="1">
          <mxGeometry x="620" y="400" width="60" height="80" as="geometry" />
        </mxCell>
        <mxCell id="dD7fOAj7Q7oTTu8-BAWZ-7" value="" style="endArrow=none;dashed=1;html=1;rounded=0;strokeWidth=5;dashPattern=1 4;" edge="1" parent="1">
          <mxGeometry width="50" height="50" relative="1" as="geometry">
            <mxPoint x="470" y="390" as="sourcePoint" />
            <mxPoint x="470" y="340" as="targetPoint" />
          </mxGeometry>
        </mxCell>
        <mxCell id="dD7fOAj7Q7oTTu8-BAWZ-8" value="" style="endArrow=none;dashed=1;html=1;rounded=0;strokeWidth=5;dashPattern=1 4;" edge="1" parent="1">
          <mxGeometry width="50" height="50" relative="1" as="geometry">
            <mxPoint x="619" y="390" as="sourcePoint" />
            <mxPoint x="619" y="340" as="targetPoint" />
          </mxGeometry>
        </mxCell>
        <mxCell id="dD7fOAj7Q7oTTu8-BAWZ-20" style="edgeStyle=orthogonalEdgeStyle;rounded=0;orthogonalLoop=1;jettySize=auto;html=1;exitX=0.5;exitY=0;exitDx=0;exitDy=0;entryX=0.5;entryY=1;entryDx=0;entryDy=0;" edge="1" parent="1" source="dD7fOAj7Q7oTTu8-BAWZ-13" target="dD7fOAj7Q7oTTu8-BAWZ-19">
          <mxGeometry relative="1" as="geometry" />
        </mxCell>
        <mxCell id="dD7fOAj7Q7oTTu8-BAWZ-13" value="ROS haptic interface" style="rounded=0;whiteSpace=wrap;html=1;" vertex="1" parent="1">
          <mxGeometry x="230" y="280" width="120" height="60" as="geometry" />
        </mxCell>
        <mxCell id="dD7fOAj7Q7oTTu8-BAWZ-14" value="UR5e Robot" style="rounded=0;whiteSpace=wrap;html=1;" vertex="1" parent="1">
          <mxGeometry x="30" y="410" width="120" height="60" as="geometry" />
        </mxCell>
        <mxCell id="dD7fOAj7Q7oTTu8-BAWZ-15" value="UR5e Robot Simulation" style="rounded=0;whiteSpace=wrap;html=1;" vertex="1" parent="1">
          <mxGeometry x="30" y="280" width="120" height="60" as="geometry" />
        </mxCell>
        <mxCell id="dD7fOAj7Q7oTTu8-BAWZ-21" style="edgeStyle=orthogonalEdgeStyle;rounded=0;orthogonalLoop=1;jettySize=auto;html=1;exitX=0;exitY=0.5;exitDx=0;exitDy=0;entryX=1;entryY=0.5;entryDx=0;entryDy=0;" edge="1" parent="1" source="dD7fOAj7Q7oTTu8-BAWZ-19" target="dD7fOAj7Q7oTTu8-BAWZ-14">
          <mxGeometry relative="1" as="geometry" />
        </mxCell>
        <mxCell id="dD7fOAj7Q7oTTu8-BAWZ-23" style="edgeStyle=orthogonalEdgeStyle;rounded=0;orthogonalLoop=1;jettySize=auto;html=1;exitX=0.5;exitY=0;exitDx=0;exitDy=0;entryX=0.5;entryY=0;entryDx=0;entryDy=0;" edge="1" parent="1" source="dD7fOAj7Q7oTTu8-BAWZ-19" target="dD7fOAj7Q7oTTu8-BAWZ-15">
          <mxGeometry relative="1" as="geometry" />
        </mxCell>
        <mxCell id="dD7fOAj7Q7oTTu8-BAWZ-19" value="Controller interface" style="rounded=0;whiteSpace=wrap;html=1;" vertex="1" parent="1">
          <mxGeometry x="230" y="150" width="120" height="60" as="geometry" />
        </mxCell>
        <mxCell id="dD7fOAj7Q7oTTu8-BAWZ-27" value="" style="endArrow=none;dashed=1;html=1;rounded=0;" edge="1" parent="1">
          <mxGeometry width="50" height="50" relative="1" as="geometry">
            <mxPoint x="600" y="180" as="sourcePoint" />
            <mxPoint x="700" y="180" as="targetPoint" />
          </mxGeometry>
        </mxCell>
        <mxCell id="dD7fOAj7Q7oTTu8-BAWZ-28" value="" style="endArrow=none;dashed=1;html=1;rounded=0;" edge="1" parent="1">
          <mxGeometry width="50" height="50" relative="1" as="geometry">
            <mxPoint x="600" y="299.5" as="sourcePoint" />
            <mxPoint x="700" y="299.5" as="targetPoint" />
          </mxGeometry>
        </mxCell>
        <mxCell id="dD7fOAj7Q7oTTu8-BAWZ-29" value="" style="endArrow=none;dashed=1;html=1;rounded=0;" edge="1" parent="1">
          <mxGeometry width="50" height="50" relative="1" as="geometry">
            <mxPoint x="600" y="439.5" as="sourcePoint" />
            <mxPoint x="700" y="439.5" as="targetPoint" />
          </mxGeometry>
        </mxCell>
        <mxCell id="dD7fOAj7Q7oTTu8-BAWZ-31" value="" style="rounded=0;whiteSpace=wrap;html=1;fillColor=none;dashed=1;" vertex="1" parent="1">
          <mxGeometry x="450" y="130" width="260" height="360" as="geometry" />
        </mxCell>
        <mxCell id="dD7fOAj7Q7oTTu8-BAWZ-32" value="Telemanipulátor karok" style="text;html=1;strokeColor=none;fillColor=none;align=center;verticalAlign=middle;whiteSpace=wrap;rounded=0;" vertex="1" parent="1">
          <mxGeometry x="450" y="100" width="260" height="30" as="geometry" />
        </mxCell>
      </root>
    </mxGraphModel>
  </diagram>
</mxfile>
